<?xml version="1.0" encoding="UTF-8"?>
<svg version="1.1" xmlns="http://www.w3.org/2000/svg" width="512" height="513">
<path d="M0 0 C0.94488785 -0.00705963 1.8897757 -0.01411926 2.86329651 -0.02139282 C41.96677384 -0.24733053 41.96677384 -0.24733053 58.76953125 3.203125 C60.28836914 3.50114014 60.28836914 3.50114014 61.83789062 3.80517578 C107.81931389 13.00008292 151.82359037 34.02945703 185.93359375 66.51953125 C188.28465405 68.74429492 190.67326977 70.86533513 193.14453125 72.953125 C196.38848595 75.76364943 199.18154857 78.80160067 201.94921875 82.078125 C203.17045588 83.50377521 204.42682225 84.90001185 205.71484375 86.265625 C244.08377378 127.04146208 268.69274516 187.36138198 268.97265625 243.43359375 C268.97971588 244.3784816 268.98677551 245.32336945 268.99404907 246.29689026 C269.21998678 285.40036759 269.21998678 285.40036759 265.76953125 302.203125 C265.47151611 303.72196289 265.47151611 303.72196289 265.16748047 305.27148438 C255.97257333 351.25290764 234.94319922 395.25718412 202.453125 429.3671875 C200.22836133 431.7182478 198.10732112 434.10686352 196.01953125 436.578125 C193.20900682 439.8220797 190.17105558 442.61514232 186.89453125 445.3828125 C185.46888104 446.60404963 184.0726444 447.860416 182.70703125 449.1484375 C135.35783713 493.70271391 67.62724363 514.98621991 3.40429688 513.06713867 C-56.79952751 510.52231735 -116.47897376 487.71666835 -160.39453125 445.88671875 C-162.74559155 443.66195508 -165.13420727 441.54091487 -167.60546875 439.453125 C-170.84942345 436.64260057 -173.64248607 433.60464933 -176.41015625 430.328125 C-177.63139338 428.90247479 -178.88775975 427.50623815 -180.17578125 426.140625 C-218.54471128 385.36478792 -243.15368266 325.04486802 -243.43359375 268.97265625 C-243.4441832 267.55532448 -243.4441832 267.55532448 -243.45498657 266.10935974 C-243.68092428 227.00588241 -243.68092428 227.00588241 -240.23046875 210.203125 C-240.03179199 209.19056641 -239.83311523 208.17800781 -239.62841797 207.13476562 C-230.43351083 161.15334236 -209.40413672 117.14906588 -176.9140625 83.0390625 C-174.68929883 80.6880022 -172.56825862 78.29938648 -170.48046875 75.828125 C-167.66994432 72.5841703 -164.63199308 69.79110768 -161.35546875 67.0234375 C-159.92981854 65.80220037 -158.5335819 64.545834 -157.16796875 63.2578125 C-116.39213167 24.88888247 -56.07221177 0.27991109 0 0 Z " fill="#2CA01C" transform="translate(243.23046875,-0.203125)"/>
<path d="M0 0 C0 88.44 0 176.88 0 268 C-11.51894175 268 -19.4756247 264.59938032 -27.80078125 256.609375 C-34.5934535 248.54986335 -37.15919397 240.1874984 -37.12025452 229.88824463 C-37.12153615 228.65192704 -37.12153615 228.65192704 -37.12284368 227.39063334 C-37.12449248 224.62530906 -37.11898689 221.86004527 -37.11352539 219.09472656 C-37.11324336 217.11386618 -37.11340156 215.1330057 -37.1139679 213.15214539 C-37.11425526 207.77031336 -37.10836826 202.38850353 -37.10139394 197.00667667 C-37.09515037 191.38390782 -37.0945558 185.76113848 -37.09336853 180.1383667 C-37.09025818 169.48891362 -37.08204877 158.83947079 -37.07201904 148.19002223 C-37.06084873 136.06682414 -37.05534513 123.94362556 -37.05032361 111.8204236 C-37.03986592 86.88027672 -37.02227219 61.94013893 -37 37 C-42.1192538 37.0699415 -47.23777128 37.15838604 -52.35644531 37.26245117 C-54.0900846 37.29527312 -55.82381984 37.32343079 -57.55761719 37.34643555 C-79.08984241 37.62129358 -79.08984241 37.62129358 -99.25 44.5 C-99.90347412 44.84184326 -100.55694824 45.18368652 -101.23022461 45.53588867 C-115.06299106 53.14872206 -124.53395533 65.24674055 -130 80 C-130.2990625 80.78246094 -130.598125 81.56492187 -130.90625 82.37109375 C-136.33546201 98.88494696 -132.86084583 115.53893537 -125.375 130.75 C-119.18584156 141.26048901 -110.73251026 149.28133409 -100 155 C-98.85917969 155.61294922 -98.85917969 155.61294922 -97.6953125 156.23828125 C-88.33105733 160.82043458 -78.07113914 161.30810184 -67.8125 161.625 C-64.244375 161.74875 -60.67625 161.8725 -57 162 C-57 174.54 -57 187.08 -57 200 C-78.34828783 200.59967101 -97.97261663 199.52193618 -117 189 C-118.010625 188.46503906 -119.02125 187.93007813 -120.0625 187.37890625 C-134.53709956 179.38464399 -145.79405286 168.61750993 -155 155 C-155.59941406 154.12988281 -156.19882813 153.25976562 -156.81640625 152.36328125 C-169.98557978 131.71095318 -174.45161886 104.58202087 -169.87060547 80.65698242 C-165.63889484 61.70600639 -156.8469775 45.56461369 -144 31 C-143.46117187 30.37738281 -142.92234375 29.75476563 -142.3671875 29.11328125 C-106.11936309 -9.95786616 -47.23635722 0 0 0 Z " fill="#FDFEFD" transform="translate(242,156)"/>
<path d="M0 0 C13.17867891 1.31786789 21.11857049 3.92622712 30 14 C35.44574788 22.07472961 37.15691607 28.5719093 37.12025452 38.23200989 C37.12110894 39.05707604 37.12196337 39.88214218 37.12284368 40.73221034 C37.12448965 43.49442865 37.11899155 46.25658612 37.11352539 49.01879883 C37.1132433 50.99980671 37.11340168 52.98081469 37.1139679 54.96182251 C37.11425503 60.33946324 37.10837187 65.71708171 37.10139394 71.09471726 C37.09514641 76.71481097 37.09455549 82.33490518 37.09336853 87.95500183 C37.09025935 98.59733842 37.08205151 109.23966474 37.07201904 119.88199681 C37.06084509 131.99796309 37.05534422 144.11392985 37.05032361 156.2299 C37.03986857 181.15327236 37.0222771 206.0766356 37 231 C42.13756633 230.93015102 47.27439222 230.84174441 52.41137695 230.73754883 C54.15185185 230.70469153 55.8924233 230.67654366 57.63305664 230.65356445 C79.48626425 230.35748467 98.82931543 227.24108766 115.44140625 211.71875 C127.50447195 199.14540234 133.68887379 183.16828044 133.54321289 165.82910156 C132.84319987 148.74514744 124.81528008 133.06339171 112.54589844 121.36181641 C99.69791812 110.04374405 84.63479326 107.05838707 68.125 106.4375 C64.45375 106.293125 60.7825 106.14875 57 106 C57 93.46 57 80.92 57 68 C90.34077175 67.26723579 118.24252912 74.35782851 143.1875 97.75 C163.19044343 118.80572992 171.79178121 145.30763128 171.3125 173.9765625 C171.00960889 182.01579729 169.4698212 189.3687412 167 197 C166.78569336 197.67998047 166.57138672 198.35996094 166.35058594 199.06054688 C161.67311476 213.56275007 154.08428797 225.56744642 144 237 C143.46117187 237.62261719 142.92234375 238.24523437 142.3671875 238.88671875 C126.61797624 255.86262737 104.17642671 263.96792242 82 268 C54.94 268 27.88 268 0 268 C0 179.56 0 91.12 0 0 Z " fill="#FDFEFD" transform="translate(270,88)"/>
</svg>
