<svg xmlns="http://www.w3.org/2000/svg" xmlns:xlink="http://www.w3.org/1999/xlink" width="500" zoomAndPan="magnify" viewBox="0 0 375 374.999991" height="500" preserveAspectRatio="xMidYMid meet" version="1.0"><path fill="#ed1c24" d="M 134.625 196.382812 C 139.046875 193.460938 148.273438 182.210938 148.796875 181.234375 C 149.324219 180.257812 151.199219 178.308594 149.25 176.359375 C 147.296875 174.410156 145.347656 175.382812 142.875 176.808594 C 140.472656 177.785156 130.199219 185.585938 126.296875 189.035156 C 122.398438 191.960938 112.648438 200.734375 112.648438 200.734375 C 112.648438 200.734375 107.25 205.160156 109.199219 207.558594 C 111.148438 209.960938 113.097656 209.058594 115.574219 208.085938 C 118.5 207.109375 130.273438 199.308594 134.625 196.382812 Z M 351.449219 251.585938 C 352.949219 252.035156 356.324219 253.085938 356.324219 256.460938 C 356.324219 256.460938 352.875 263.285156 351.898438 263.808594 C 350.398438 264.257812 348 264.257812 343.125 262.308594 C 338.25 260.359375 314.324219 254.507812 307.949219 253.007812 C 301.574219 251.507812 287.472656 249.109375 287.472656 249.109375 C 287.472656 249.109375 285.523438 248.132812 282.597656 252.558594 C 279.671875 257.433594 270.375 270.632812 270.375 270.632812 C 270.074219 271.757812 269.097656 272.585938 267.972656 272.585938 C 266.023438 272.585938 258.671875 272.058594 255.75 270.632812 C 252.824219 269.210938 251.847656 269.132812 253.796875 266.210938 C 255.75 263.285156 262.125 250.085938 265.046875 247.683594 C 267.449219 245.285156 263.097656 245.734375 261.597656 245.285156 C 260.097656 244.835938 231.824219 243.335938 223.5 243.785156 C 215.175781 243.785156 185.921875 243.785156 175.125 244.757812 C 164.398438 245.210938 126.296875 249.183594 116.023438 250.609375 C 105.75 252.558594 64.722656 257.960938 59.398438 259.382812 C 54.074219 260.808594 42.824219 262.308594 42.824219 262.308594 C 39.074219 263.132812 35.175781 262.835938 31.574219 261.335938 C 26.175781 258.933594 17.398438 255.484375 24.75 253.007812 C 32.097656 250.535156 68.699219 243.257812 79.949219 241.757812 C 91.199219 239.808594 126.824219 234.933594 141.449219 234.410156 C 156.074219 233.882812 196.648438 231.484375 211.800781 231.484375 C 226.949219 231.484375 247.425781 232.460938 256.722656 233.433594 C 265.5 233.882812 271.347656 234.410156 273.300781 234.933594 C 275.25 235.460938 275.25 233.960938 277.199219 232.007812 C 279.148438 230.058594 284.550781 222.710938 284.550781 222.710938 C 284.550781 222.710938 286.5 219.785156 282.597656 222.257812 C 279.148438 224.660156 273.300781 224.660156 270.375 222.257812 C 267.449219 219.335938 266.472656 216.859375 264.972656 217.835938 C 261.824219 219.558594 258.597656 221.058594 255.222656 222.257812 C 252.300781 223.234375 239.625 226.160156 232.273438 221.285156 C 224.925781 215.882812 224.472656 213.933594 223.5 211.535156 C 222.523438 208.160156 222 208.160156 219.597656 209.585938 C 217.125 211.007812 208.875 215.433594 205.425781 216.933594 C 202.347656 218.734375 198.75 219.410156 195.148438 218.882812 C 190.273438 218.433594 184.875 216.933594 182.472656 213.035156 C 180.523438 209.132812 180.074219 206.210938 177.597656 208.160156 C 175.125 210.109375 161.472656 217.910156 154.199219 219.859375 C 146.847656 222.335938 144.898438 222.785156 141 222.335938 C 136.574219 221.882812 132.222656 219.859375 130.722656 217.460938 C 129.222656 215.058594 128.773438 214.535156 126.824219 215.507812 C 124.875 217.007812 119.472656 220.910156 115.574219 220.910156 C 111.671875 220.460938 101.398438 217.984375 96.074219 207.710938 C 90.75 197.433594 94.574219 193.085938 99.523438 187.683594 C 104.398438 182.808594 113.171875 175.007812 113.171875 175.007812 C 113.171875 175.007812 124.421875 166.683594 127.796875 165.257812 C 131.699219 163.308594 137.546875 159.859375 141.449219 159.859375 C 146.773438 159.183594 152.097656 160.757812 156.148438 164.285156 C 161.550781 168.710938 164.925781 173.058594 165.449219 175.007812 C 165.972656 176.960938 168.375 182.808594 164.472656 187.234375 C 160.574219 191.660156 149.324219 201.859375 149.324219 201.859375 C 149.324219 201.859375 144.898438 204.335938 146.847656 207.257812 C 148.800781 210.183594 156.148438 205.308594 158.550781 203.882812 C 160.949219 201.933594 173.699219 191.210938 177.597656 187.757812 C 181.5 183.859375 205.949219 159.933594 208.347656 157.460938 C 210.300781 154.984375 230.847656 134.960938 233.699219 133.007812 C 236.625 131.058594 237.597656 129.558594 243.449219 130.609375 C 246.523438 131.132812 249.449219 132.109375 252.222656 133.535156 C 252.222656 133.535156 258.074219 136.007812 253.199219 139.382812 C 248.773438 142.757812 233.175781 155.960938 229.273438 159.859375 C 225.375 163.757812 214.125 175.007812 210.75 178.910156 C 207.300781 183.785156 197.550781 196.007812 196.125 197.960938 C 194.625 200.433594 193.648438 202.835938 196.125 204.785156 C 198.597656 206.285156 202.949219 204.785156 207.375 200.882812 C 211.800781 196.984375 225.449219 185.734375 229.875 180.859375 C 234.75 175.984375 260.175781 152.058594 262.574219 149.585938 C 265.046875 147.632812 276.75 138.335938 276.75 138.335938 C 276.75 138.335938 278.25 136.382812 281.625 136.382812 C 285 136.382812 288.449219 136.835938 290.398438 137.882812 L 296.25 140.808594 C 296.25 140.808594 298.648438 141.785156 294.75 144.710938 C 290.847656 147.632812 269.398438 164.210938 264 170.585938 C 258.148438 176.960938 246.898438 189.632812 242.472656 195.035156 C 238.046875 200.882812 235.125 203.359375 238.574219 207.257812 C 242.023438 211.160156 245.921875 210.183594 247.875 209.734375 C 252.75 206.960938 257.175781 203.507812 261.074219 199.460938 C 265.949219 194.585938 280.574219 178.460938 282.597656 176.960938 C 284.097656 175.007812 289.949219 169.609375 289.949219 169.609375 C 289.949219 169.609375 290.921875 167.210938 294.375 167.210938 C 297.824219 167.210938 299.25 167.660156 302.699219 168.183594 C 305.625 168.632812 312.449219 170.132812 309.074219 174.035156 C 305.171875 177.933594 295.875 187.683594 293.921875 189.632812 C 291.972656 192.035156 284.171875 200.882812 282.671875 203.285156 C 281.171875 205.683594 279.222656 208.683594 281.171875 210.109375 C 283.125 211.535156 288.523438 209.660156 293.398438 206.660156 C 300.148438 203.058594 306.375 198.632812 311.921875 193.460938 C 318.296875 187.609375 328.5 178.308594 328.5 178.308594 C 328.5 178.308594 330.449219 174.410156 337.796875 175.910156 C 345.148438 177.859375 347.097656 178.308594 347.097656 178.308594 C 347.097656 178.308594 352.949219 179.808594 349.046875 183.183594 C 345.148438 186.558594 332.472656 198.335938 327.597656 202.683594 C 322.722656 207.558594 307.574219 222.710938 305.097656 225.632812 C 302.625 228.558594 295.347656 235.382812 298.273438 235.910156 C 301.199219 236.433594 323.699219 240.335938 328.574219 241.835938 C 332.398438 244.757812 350.023438 250.609375 351.449219 251.585938 Z M 99 130.007812 C 94.648438 129.410156 90.222656 129.410156 85.796875 130.007812 C 78.449219 130.984375 57 132.933594 53.097656 134.882812 C 49.199219 136.835938 45.75 132.410156 44.324219 130.984375 C 42.375 129.484375 38.472656 125.132812 38.472656 125.132812 C 38.472656 125.132812 36.523438 122.660156 39.972656 121.683594 C 43.875 120.710938 65.847656 117.257812 72.671875 116.285156 C 79.5 115.835938 112.722656 113.808594 122.023438 113.808594 C 130.796875 113.808594 161.546875 115.757812 169.875 117.710938 C 169.875 117.710938 171.375 117.257812 173.324219 121.160156 C 174.222656 123.632812 174.75 126.335938 174.824219 128.960938 C 174.824219 128.960938 176.324219 131.882812 170.921875 131.433594 C 164.546875 130.984375 155.324219 130.460938 148.949219 129.933594 C 142.574219 129.410156 127.5 128.433594 125.023438 128.433594 C 123.074219 128.433594 122.097656 128.433594 121.125 130.382812 C 119.625 132.335938 113.773438 140.132812 112.347656 142.085938 C 110.921875 144.035156 104.546875 152.359375 99.148438 159.710938 C 93.75 167.058594 86.921875 176.285156 80.625 185.585938 C 74.773438 195.335938 69.375 204.109375 66.972656 208.085938 C 65.472656 210.410156 64.199219 212.882812 63.074219 215.433594 C 62.625 216.410156 62.097656 217.910156 59.171875 217.910156 C 56.25 217.910156 43.574219 217.460938 43.574219 217.460938 C 43.574219 217.460938 38.171875 217.910156 41.625 212.058594 C 45.074219 205.683594 52.347656 193.535156 55.273438 189.109375 C 58.199219 184.234375 74.324219 162.257812 77.699219 158.359375 C 80.472656 154.910156 99 130.007812 99 130.007812 Z M 99 130.007812 " fill-opacity="1" fill-rule="nonzero"/><path fill="#000000" d="M 132.671875 191.507812 C 137.097656 188.585938 146.398438 177.335938 146.847656 176.359375 C 147.296875 175.382812 149.324219 173.433594 147.296875 171.484375 C 145.273438 169.535156 143.398438 170.507812 140.921875 171.933594 C 138.523438 172.910156 128.25 181.234375 124.347656 184.160156 C 120.449219 187.085938 110.699219 195.859375 110.699219 195.859375 C 110.699219 195.859375 105.296875 200.285156 107.324219 202.683594 C 109.347656 205.085938 111.222656 204.183594 113.699219 203.210938 C 116.546875 202.234375 128.324219 194.433594 132.671875 191.507812 Z M 120 109.007812 L 117.597656 109.007812 C 105.898438 109.007812 77.546875 110.960938 71.171875 111.484375 C 64.347656 111.933594 42.375 115.910156 38.472656 116.882812 C 34.574219 117.859375 36.523438 120.257812 36.523438 120.257812 C 36.523438 120.257812 40.421875 124.683594 42.375 126.109375 C 44.324219 127.609375 47.25 131.960938 51.148438 130.007812 C 55.574219 128.058594 77.023438 126.109375 83.847656 125.132812 C 88.199219 124.535156 92.625 124.535156 97.046875 125.132812 C 97.046875 125.132812 78.523438 149.507812 75.597656 153.933594 C 72.671875 157.835938 56.546875 179.808594 53.097656 184.683594 C 50.171875 189.558594 42.375 201.785156 38.921875 207.632812 C 36 213.484375 41.324219 213.035156 41.324219 213.035156 C 41.324219 213.035156 54 213.484375 56.921875 213.484375 C 59.324219 213.484375 59.847656 211.535156 60.375 210.558594 C 61.5 208.007812 62.773438 205.609375 64.273438 203.210938 C 66.75 199.308594 72.074219 190.535156 77.925781 180.710938 C 83.773438 170.882812 91.125 161.660156 96.449219 154.308594 C 101.773438 146.960938 108.148438 138.710938 109.648438 136.757812 C 111.148438 134.808594 117 127.007812 118.425781 125.058594 C 119.847656 123.109375 120.375 123.109375 122.324219 123.109375 C 124.800781 123.109375 139.875 124.085938 146.25 124.609375 C 153.074219 125.132812 162.375 125.585938 168.222656 126.109375 C 174.074219 126.632812 172.125 123.632812 172.125 123.632812 C 172.347656 121.085938 171.824219 118.535156 170.625 116.285156 C 168.675781 112.382812 167.175781 112.835938 167.175781 112.835938 C 159.523438 110.507812 128.773438 109.007812 120 109.007812 Z M 349.5 246.710938 C 351 247.683594 354.375 248.660156 353.925781 251.585938 C 353.925781 251.585938 351 258.410156 349.5 258.933594 C 348 259.460938 345.597656 259.382812 340.722656 257.433594 C 335.847656 255.484375 311.921875 249.632812 305.546875 248.132812 C 299.699219 247.160156 285.523438 244.757812 285.523438 244.757812 C 285.523438 244.757812 283.574219 243.785156 280.648438 248.660156 C 277.722656 253.085938 268.421875 266.734375 268.421875 266.734375 C 268.125 267.859375 267.148438 268.683594 265.949219 268.683594 C 264 268.683594 256.648438 268.234375 253.722656 266.734375 C 250.800781 265.234375 249.824219 265.234375 251.773438 262.308594 C 253.722656 259.382812 260.097656 246.183594 263.023438 243.785156 C 265.949219 241.382812 261.523438 241.835938 260.097656 241.382812 C 258.597656 241.382812 230.324219 239.433594 222 239.882812 C 213.675781 239.882812 184.421875 239.882812 173.625 240.859375 C 162.824219 241.835938 124.273438 245.285156 114.523438 246.710938 C 104.25 248.210938 63.222656 254.058594 57.898438 255.484375 C 52.5 256.460938 41.324219 258.410156 41.324219 258.410156 C 37.574219 259.234375 33.675781 258.933594 30.074219 257.433594 C 24.675781 255.035156 15.898438 251.585938 23.25 249.109375 C 30.597656 246.632812 67.199219 239.359375 78.449219 237.859375 C 89.699219 236.359375 125.324219 231.035156 139.949219 230.507812 C 154.574219 229.535156 195.148438 227.585938 210.222656 227.585938 C 225.375 227.585938 245.847656 228.558594 255.148438 229.535156 C 263.925781 229.984375 269.773438 230.507812 271.722656 231.035156 C 273.671875 231.558594 273.671875 230.058594 275.625 228.109375 C 277.574219 226.160156 282.972656 218.808594 282.972656 218.808594 C 282.972656 218.808594 284.921875 216.335938 281.023438 218.359375 C 277.125 220.757812 271.722656 220.757812 268.800781 217.910156 C 265.875 214.984375 264.898438 213.035156 263.398438 213.484375 C 261.898438 213.933594 256.574219 216.859375 253.648438 217.910156 C 250.722656 218.960938 238.5 221.808594 231.148438 216.410156 C 223.800781 211.535156 223.347656 209.058594 222.375 207.109375 C 221.398438 204.710938 220.875 204.710938 218.472656 206.132812 C 216 208.085938 207.75 211.984375 204.296875 213.484375 C 201.148438 215.210938 197.625 216.035156 194.023438 215.882812 C 189.148438 215.433594 183.75 213.933594 181.347656 210.035156 C 178.949219 206.132812 178.875 203.210938 176.472656 205.160156 C 174.074219 207.109375 160.347656 214.910156 153.074219 216.859375 C 144.75 217.835938 142.796875 218.808594 138.898438 217.835938 C 134.472656 216.859375 130.125 215.359375 128.625 212.960938 C 127.125 210.558594 126.671875 210.035156 124.722656 211.460938 C 122.773438 212.882812 117.375 216.859375 113.472656 216.335938 C 109.574219 215.808594 99.296875 213.410156 93.449219 203.132812 C 88.046875 192.859375 91.949219 188.507812 96.824219 183.632812 C 101.699219 178.234375 111 170.960938 111 170.960938 C 111 170.960938 122.25 163.160156 125.625 161.210938 C 129.523438 159.257812 135.375 155.808594 139.273438 155.808594 C 143.171875 155.808594 148.574219 155.808594 153.898438 160.234375 C 159.222656 164.660156 162.222656 169.007812 163.199219 170.960938 C 163.648438 172.460938 166.125 178.757812 162.222656 183.183594 C 158.324219 187.609375 147.597656 197.808594 147.597656 197.808594 C 147.597656 197.808594 143.171875 200.285156 145.125 203.660156 C 147.074219 206.585938 154.421875 201.710938 156.375 199.757812 C 158.847656 198.257812 171.523438 187.085938 175.421875 183.632812 C 179.324219 179.734375 203.773438 155.808594 206.171875 153.859375 C 208.125 151.382812 228.597656 131.359375 232.046875 129.410156 C 234.972656 127.460938 235.949219 126.035156 241.796875 127.007812 C 244.875 127.535156 247.796875 128.507812 250.574219 129.933594 C 250.574219 129.933594 256.421875 132.335938 251.546875 135.785156 C 247.125 139.683594 231.523438 152.359375 227.625 156.257812 C 223.722656 160.160156 212.546875 171.410156 209.171875 175.308594 C 205.273438 179.210938 195.523438 191.433594 194.023438 193.835938 C 192.523438 196.234375 191.546875 198.710938 194.023438 200.660156 C 196.5 202.609375 200.847656 200.660156 205.273438 196.757812 C 209.699219 192.859375 223.347656 181.609375 227.773438 176.734375 C 232.199219 171.859375 258.074219 147.933594 260.472656 145.984375 C 262.875 144.035156 274.648438 134.285156 274.648438 134.285156 C 274.648438 134.285156 276.148438 132.335938 279.523438 132.335938 C 282.898438 132.335938 286.347656 132.785156 288.296875 133.835938 L 294.148438 136.757812 C 294.148438 136.757812 296.625 137.734375 292.648438 140.660156 C 288.671875 143.585938 267.222656 160.160156 261.375 166.535156 C 255.972656 172.910156 244.273438 185.585938 239.921875 190.910156 C 235.5 196.757812 232.574219 199.683594 236.023438 203.132812 C 239.398438 207.035156 243.375 206.058594 245.324219 205.535156 C 247.273438 205.007812 254.097656 200.132812 258.523438 195.257812 C 263.398438 190.382812 278.023438 174.710938 279.972656 172.757812 C 281.472656 170.808594 287.324219 165.410156 287.324219 165.410156 C 287.324219 165.410156 288.296875 163.007812 291.75 163.007812 C 295.199219 163.007812 296.625 163.460938 300.074219 163.984375 C 303 164.960938 309.824219 165.933594 306.449219 169.835938 C 302.546875 173.734375 293.25 183.035156 291.296875 185.433594 C 289.347656 187.835938 281.546875 196.683594 280.046875 199.085938 C 278.546875 201.484375 276.671875 204.484375 278.546875 205.910156 C 280.421875 207.335938 285.898438 205.460938 290.773438 202.460938 C 297.671875 198.933594 304.046875 194.507812 309.824219 189.257812 C 316.199219 183.410156 326.398438 174.109375 326.398438 174.109375 C 326.398438 174.109375 327.898438 170.210938 335.699219 171.710938 C 343.046875 173.210938 345 174.109375 345 174.109375 C 345 174.109375 350.847656 175.609375 346.949219 178.984375 C 343.046875 182.359375 330.375 193.609375 325.421875 198.484375 C 320.546875 202.910156 305.398438 218.507812 302.921875 221.433594 C 300.449219 224.359375 293.171875 231.183594 296.097656 231.710938 C 299.023438 232.234375 321.449219 236.585938 326.398438 238.085938 C 330.898438 239.808594 348 246.183594 349.5 246.710938 Z M 349.5 246.710938 " fill-opacity="1" fill-rule="nonzero"/></svg>