<svg xmlns="http://www.w3.org/2000/svg" xmlns:xlink="http://www.w3.org/1999/xlink" width="500" zoomAndPan="magnify" viewBox="0 0 375 374.999991" height="500" preserveAspectRatio="xMidYMid meet" version="1.0"><path fill="#004271" d="M 143.523438 169.355469 C 156.625 175.132812 164.488281 180.539062 173.132812 191.9375 C 175.195312 194.617188 177.253906 197.292969 179.378906 200.050781 C 182.523438 204.238281 182.523438 204.238281 185.730469 208.511719 C 192 216.722656 198.273438 224.921875 204.6875 233.023438 C 210.605469 240.953125 210.605469 240.953125 219.339844 256.160156 C 228.003906 266.453125 232.960938 267.800781 246.457031 270.3125 C 263.347656 271.460938 280.046875 271.753906 296.976562 271.71875 C 305.785156 271.859375 305.785156 271.859375 314.769531 272 C 329.242188 272.210938 343.71875 272.261719 358.191406 272.277344 C 358.191406 298.859375 358.191406 325.441406 358.191406 352.828125 C 328.335938 352.9375 298.484375 353.019531 268.632812 353.074219 C 258.464844 353.097656 248.300781 353.128906 238.136719 353.167969 C 223.5625 353.21875 208.988281 353.246094 194.410156 353.265625 C 189.835938 353.289062 185.261719 353.3125 180.546875 353.335938 C 176.339844 353.335938 172.132812 353.335938 167.796875 353.335938 C 164.074219 353.347656 160.347656 353.355469 156.511719 353.367188 C 147.996094 352.828125 147.996094 352.828125 143.523438 348.355469 C 143.125 335.121094 143.007812 321.992188 143.085938 308.761719 C 143.089844 304.792969 143.097656 300.828125 143.105469 296.738281 C 143.128906 284.019531 143.1875 271.296875 143.242188 258.574219 C 143.265625 249.972656 143.285156 241.367188 143.304688 232.765625 C 143.351562 211.628906 143.429688 190.492188 143.523438 169.355469 Z M 143.523438 169.355469 " fill-opacity="1" fill-rule="nonzero"/><path fill="#014271" d="M 18.296875 21.679688 C 48.152344 21.570312 78.003906 21.488281 107.859375 21.433594 C 118.023438 21.410156 128.1875 21.378906 138.351562 21.339844 C 152.925781 21.289062 167.503906 21.261719 182.078125 21.242188 C 186.652344 21.21875 191.226562 21.195312 195.941406 21.171875 C 200.148438 21.171875 204.355469 21.171875 208.691406 21.171875 C 212.417969 21.160156 216.140625 21.152344 219.976562 21.140625 C 228.496094 21.679688 228.496094 21.679688 232.96875 26.152344 C 233.363281 39.386719 233.484375 52.515625 233.402344 65.746094 C 233.398438 69.714844 233.390625 73.679688 233.386719 77.769531 C 233.359375 90.488281 233.304688 103.210938 233.246094 115.933594 C 233.222656 124.535156 233.203125 133.140625 233.1875 141.742188 C 233.136719 162.878906 233.058594 184.015625 232.96875 205.152344 C 216.960938 197.730469 209.101562 190.171875 198.308594 176.066406 C 195.5625 172.511719 192.820312 168.960938 189.992188 165.296875 C 179.300781 151.453125 179.300781 151.453125 172.417969 140.109375 C 159.984375 121.398438 151.132812 108.792969 128.902344 102.6875 C 112.003906 101.304688 95.625 101.1875 78.675781 101.667969 C 72.863281 101.65625 67.050781 101.648438 61.0625 101.632812 C 46.808594 101.632812 32.550781 101.90625 18.296875 102.230469 C 18.296875 75.648438 18.296875 49.066406 18.296875 21.679688 Z M 18.296875 21.679688 " fill-opacity="1" fill-rule="nonzero"/><path fill="#b1c1d1" d="M 241.910156 39.578125 C 274.378906 39.578125 306.847656 39.578125 340.300781 39.578125 C 345.207031 177.550781 345.207031 177.550781 345.332031 226.96875 C 345.351562 230.230469 345.375 233.492188 345.394531 236.851562 C 345.332031 258.296875 345.332031 258.296875 340.300781 263.328125 C 318.164062 263.328125 296.027344 263.328125 273.21875 263.328125 C 273.21875 211.644531 273.21875 159.957031 273.21875 106.703125 C 262.886719 106.703125 252.554688 106.703125 241.910156 106.703125 C 241.910156 84.550781 241.910156 62.402344 241.910156 39.578125 Z M 241.910156 39.578125 " fill-opacity="1" fill-rule="nonzero"/><path fill="#b1c2d1" d="M 36.1875 111.179688 C 58.324219 111.179688 80.460938 111.179688 103.269531 111.179688 C 103.269531 162.863281 103.269531 214.550781 103.269531 267.804688 C 113.601562 267.804688 123.933594 267.804688 134.578125 267.804688 C 134.578125 289.957031 134.578125 312.105469 134.578125 334.929688 C 102.109375 334.929688 69.640625 334.929688 36.1875 334.929688 C 35.449219 303.78125 34.722656 272.636719 34.03125 241.492188 C 33.792969 230.886719 33.542969 220.28125 33.289062 209.675781 C 32.921875 194.46875 32.585938 179.265625 32.257812 164.058594 C 32.136719 159.285156 32.015625 154.511719 31.890625 149.59375 C 31.800781 145.203125 31.710938 140.8125 31.617188 136.289062 C 31.527344 132.40625 31.4375 128.519531 31.347656 124.515625 C 31.714844 115.652344 31.714844 115.652344 36.1875 111.179688 Z M 36.1875 111.179688 " fill-opacity="1" fill-rule="nonzero"/></svg>